<?xml version="1.0" encoding="UTF-8"?>
<!DOCTYPE svg PUBLIC "-//W3C//DTD SVG 1.1//EN" "http://www.w3.org/Graphics/SVG/1.1/DTD/svg11.dtd">
<!-- Creator: CorelDRAW -->
<svg xmlns="http://www.w3.org/2000/svg" xml:space="preserve" width="20.32mm" height="8.4666mm" version="1.1" style="shape-rendering:geometricPrecision; text-rendering:geometricPrecision; image-rendering:optimizeQuality; fill-rule:evenodd; clip-rule:evenodd"
viewBox="0 0 2032 846.66"
 xmlns:xlink="http://www.w3.org/1999/xlink"
 xmlns:xodm="http://www.corel.com/coreldraw/odm/2003">
 <defs>
  <style type="text/css">
   <![CDATA[
    .fil3 {fill:#0351B9}
    .fil5 {fill:#038D3E}
    .fil1 {fill:#38B5FE}
    .fil2 {fill:#8B51FD}
    .fil4 {fill:#E8BF19}
    .fil0 {fill:#FE1616}
   ]]>
  </style>
 </defs>
 <g id="Слой_x0020_1">
  <metadata id="CorelCorpID_0Corel-Layer"/>
  <path class="fil0" d="M227.99 137.05c-122.93,25.41 -230.3,142.78 -196.18,301.69 25.78,120.34 149.83,223.26 302.43,189.88 117.75,-25.77 224.56,-147.6 190.07,-300.02 -26.7,-118.68 -145.01,-223.07 -296.32,-191.55zm25.78 51.74c112.74,-15.02 205.27,69.53 217.69,169.11 14.28,116.81 -71.02,205.82 -169.85,217.87 -253.67,31.15 -305.21,-352.87 -47.84,-386.98z"/>
  <path class="fil1" d="M1067.8 275.38c32.26,19.66 133.69,1.85 179.3,7.42l-170.03 191.36c-17.99,21.69 -43.39,71.2 16.31,71.2l206.01 0c23.37,0 38.76,-6.67 32.45,-38.94 -8.15,-40.98 -95.31,-18.54 -184.87,-21.14l169.85 -193.21c15.58,-15.76 13.36,-14.47 13.36,-41.91 0,-27.26 -4.46,-29.29 -30.79,-29.29l-206.01 0c-36.52,0 -39.68,27.81 -25.58,54.51z"/>
  <path class="fil2" d="M1835.65 382.56l-78.62 0.37c0,120.34 -18.17,161.88 28,162.99 44.13,1.11 29.3,-24.66 29.3,-109.77l53.77 0.37c10.94,24.29 24.85,47.28 37.64,70.64 18.18,33.57 23.74,46.92 71.95,34.68l-50.07 -110.14c12.24,-13.54 43.21,-22.81 58.79,-68.24 21.32,-61.94 -16.14,-139.07 -103.1,-142.41 -34.86,-1.48 -97.72,-2.78 -130.92,1.3 3.16,25.4 68.24,123.86 83.26,160.21zm55.63 -17.99c-2.41,-4.08 -4.64,-8.34 -6.86,-12.61l-39.87 -77.88c138.15,-5.19 103.66,91.23 58.23,105.69l-11.5 -15.2z"/>
  <path class="fil3" d="M1421.96 545.36c66.94,0 219.18,3.16 276.48,-2.78 2.96,-30.22 -104.21,-243.65 -128.32,-303.17 -5.93,-14.47 -12.05,-35.05 -31.71,-25.41 -12.61,6.12 -32.26,64.53 -40.42,82.7l-98.09 221.4c-10.94,26.15 -4.82,27.26 22.06,27.26zm121.27 -223.62c15.02,14.64 71.39,153.53 74.54,164.84l-141.48 -1.11 66.94 -163.73z"/>
  <path class="fil4" d="M617.58 245.15c0,75.1 -3.15,229.75 1.3,296.13 43.94,8.9 182.09,6.12 232.34,2.04 14.28,-74.17 13.53,-56.37 -176.16,-56.37l-0.19 -241.8c-0.18,-24.66 -7.78,-24.29 -32.81,-24.29 -22.44,0 -24.48,1.86 -24.48,24.29z"/>
  <path class="fil5" d="M921.12 250.16l0 264.79c0,36.9 4.82,32.64 52.66,28.37 12.98,-62.12 5.01,-220.66 4.83,-293.16 0,-26.14 1.11,-30.22 -27.45,-30.78 -26.88,-0.37 -30.04,5.19 -30.04,30.78z"/>
  <path class="fil0" d="M260.07 342.32c-61.19,31.52 -12.61,107.92 39.69,80.85 51.36,-26.71 13.72,-108.29 -39.69,-80.85z"/>
 </g>
</svg>
