<?xml version="1.0" encoding="UTF-8"?>
<!DOCTYPE svg PUBLIC "-//W3C//DTD SVG 1.1//EN" "http://www.w3.org/Graphics/SVG/1.1/DTD/svg11.dtd">
<!-- Creator: CorelDRAW -->
<svg xmlns="http://www.w3.org/2000/svg" xml:space="preserve" width="10.16mm" height="10.16mm" version="1.1" style="shape-rendering:geometricPrecision; text-rendering:geometricPrecision; image-rendering:optimizeQuality; fill-rule:evenodd; clip-rule:evenodd"
viewBox="0 0 1016 1016"
 xmlns:xlink="http://www.w3.org/1999/xlink"
 xmlns:xodm="http://www.corel.com/coreldraw/odm/2003">
 <defs>
  <style type="text/css">
   <![CDATA[
    .fil3 {fill:#0352BB}
    .fil5 {fill:#038F3F}
    .fil1 {fill:#38B6FF}
    .fil2 {fill:#8C51FF}
    .fil4 {fill:#E8BF19}
    .fil0 {fill:#FF1616}
   ]]>
  </style>
 </defs>
 <g id="Слой_x0020_1">
  <metadata id="CorelCorpID_0Corel-Layer"/>
  <g id="_2557975922048">
   <path class="fil0" d="M163.91 438.73c50.12,-3.14 92.75,35.34 96.22,84.95 3.56,50.89 -35.03,93.26 -85.22,97.04 -50.57,3.82 -93.55,-35.83 -96.62,-85.71 -3.1,-50.55 35.49,-93.14 85.62,-96.28zm-112.16 97.24c2.83,64.86 58.86,115.11 123.71,111.55 64.32,-3.54 115.46,-58.08 111.54,-123.11 -3.94,-65.35 -57.73,-115.33 -123.79,-111.96 -65.35,3.32 -114.31,58.39 -111.46,123.52z"/>
   <path class="fil1" d="M587.72 562.68c4.25,-4.57 8.85,-10.86 13.23,-15.03l52.72 -59.64c7.75,-7.81 6.99,-5.74 7.01,-21.41 0.01,-13.59 -2.67,-12.28 -15.54,-12.28l-84.72 0c-6.01,0 -20.81,-2.05 -23.66,4 -0.7,1.51 -3.37,20.22 2.97,23.46 3.92,2 71.59,-0.12 83.17,0.93 -13.71,17.7 -39.68,43.14 -53.69,60.22 -3.57,4.34 -9.76,11.3 -13.73,15.12 -4.32,4.17 -9.09,10.43 -13.19,15.07 -7.88,8.92 -8.6,6.91 -8.62,19.95 -0.02,12.56 3.87,12.59 15.08,12.59l85.95 0c5.95,0 21.37,1.97 24.89,-3.04 3,-4.27 3.32,-20.14 -1.25,-23.36 -3.29,-2.33 -21.67,-1.39 -26.71,-1.39 -18.8,0 -38.4,0.54 -57.1,-0.06 1.31,-2.64 10.56,-12.29 13.19,-15.13z"/>
   <path class="fil2" d="M926.93 529.15c-1.53,-1.47 -26.44,-47.74 -27.03,-50.23 4.37,-0.57 23.7,-0.24 27.84,0.95 14.92,4.26 22.97,23.09 15.23,36.55 -4.24,7.35 -8.45,9.65 -16.04,12.73zm31.31 -56.4c-10.4,-13.49 -23.99,-18.43 -41.75,-18.43 -9.47,0.01 -53.88,-1.08 -59.47,0.72 -0.6,5.94 35.14,62.92 39.7,74.77l-37.01 0.31c-0.54,17.8 -0.04,40.03 -0.04,58.65 0,5.2 -1.68,12.87 2.74,16.49 3.02,0.59 15.91,0.71 19.13,0.35 6.52,-0.73 4.8,-8.64 4.8,-13.77 0,-12.38 0,-24.76 0,-37.15l24.58 0.29c5.62,9.85 10.82,20.41 16.63,30.09 11.97,19.97 7.31,20.95 25.77,20.25 15.56,-0.59 14.07,-0.58 1.14,-24.46 -5.34,-9.87 -11.2,-19.77 -16.24,-29.74 2.02,-0.94 2.93,-0.64 5.42,-2.12 10.96,-6.54 19.72,-17.04 23.5,-29.3 5.1,-16.54 1.49,-33.5 -8.9,-46.95z"/>
   <path class="fil3" d="M761.17 500.58c1.18,1.35 32.64,72.95 34.07,78.06l-66.96 -0.09 32.89 -77.97zm71.48 103.18c1.32,-4.99 -7.04,-21.99 -9.34,-27.39 -11.83,-27.8 -23,-50.25 -34.85,-76.93 -4.95,-11.15 -13.31,-28.47 -17.47,-38.97 -1.8,-4.55 -2.72,-9.66 -8.05,-10.21 -7.97,-0.82 -7.81,2.57 -10.49,8.23l-16.87 38.39c-5.24,12.71 -45.02,99.52 -45.02,104.17 0,6.5 9.12,4.6 14.13,4.6l111.73 0c4.15,0 13.64,1.3 16.23,-1.89z"/>
   <path class="fil4" d="M354.45 479.49c0,-17.99 2.48,-25.03 -7.04,-25.18 -2.97,-0.04 -14.06,-0.3 -16.19,0.41 -4.98,1.66 -3.51,8.91 -3.51,13.11l-0.02 130.82c0.06,7.48 2.85,7.02 9.26,7l81.65 0c20.7,0 19.91,2.17 19.91,-13.2 0,-17.31 -2.16,-13.81 -18.68,-13.81 -21.79,0 -43.59,0 -65.38,0l0 -99.15z"/>
   <path class="fil5" d="M470.24 601.05c1.34,6.34 13.09,4.72 18.35,4.61 10,-0.2 8.06,-6.39 8.06,-14.43l0 -88.41c0,-50.37 5.2,-49.32 -18.5,-48.82 -9.71,0.21 -8.17,6.95 -8.17,14.44 0,10.07 -0.58,128.64 0.26,132.61z"/>
   <path class="fil0" d="M148.16 533.38c4.51,27.4 47.44,21.06 42.44,-7.07 -2.02,-11.36 -12.89,-19.25 -24.44,-17.51 -11.56,1.75 -19.93,12.83 -18,24.58z"/>
  </g>
 </g>
</svg>
